<svg xmlns="http://www.w3.org/2000/svg" width="140.333" height="46" viewBox="0 0 140.333 46"><g fill="#323742"><path d="M12.774 13.775h-1.946l-.274 1.893h1.936z"/><path d="M2.293 24.261h18.731V5.53H2.293v18.731zm2.718-8.593H6.8l.283-1.893H5.832V10.44H7.62l.516-3.302h3.754l-.516 3.302h1.937l.515-3.302h3.745l-.515 3.302h1.251v3.335h-1.788l-.285 1.893h1.252v3.355h-1.789l-.578 3.629h-3.746l.58-3.629h-1.946l-.579 3.629H5.685l.578-3.629H5.011v-3.355zm64.547 1.391l2.671-.007-1.303-4.088zM45.37 11.115a1.55 1.55 0 0 0-.616-.482 2.09 2.09 0 0 0-.9-.187 2.028 2.028 0 0 0-.873.186 1.748 1.748 0 0 0-.63.492c-.125.161-.228.36-.309.595-.08.235-.139.596-.181 1.084-.041.487-.06 1.183-.058 2.087.003.898.025 1.591.068 2.078.043.487.105.846.187 1.077.081.232.186.428.313.589.357.462.86.692 1.504.691.653-.002 1.157-.235 1.513-.699.197-.274.338-.642.423-1.101.087-.459.129-1.342.126-2.646-.004-1.305-.05-2.195-.139-2.672-.089-.476-.23-.841-.428-1.092zM31.6 12.761c.221-.245.331-.539.33-.881a1.285 1.285 0 0 0-.325-.879c-.213-.244-.558-.365-1.035-.364l-2.347.005.007 2.494 2.345-.007c.464 0 .805-.123 1.025-.368zm-.817 3.756l-2.545.005.007 2.683 2.546-.007c.477-.001.825-.134 1.046-.4a1.45 1.45 0 0 0 .328-.955c0-.37-.11-.684-.328-.942-.219-.257-.569-.385-1.054-.384zm65.957.472l2.671-.007-1.304-4.087z"/><path d="M98.898 5.53l-.025.042-2.131.004.012-.046H22.8v18.731h115.349V5.53H98.898zM35.58 19.977a3.963 3.963 0 0 1-.996 1.422 4.3 4.3 0 0 1-1.531.882 5.935 5.935 0 0 1-1.892.305l-6.672.016-.04-15.335 6.358-.017c1.038-.002 1.923.18 2.66.546.736.367 1.294.885 1.67 1.554.375.67.566 1.446.567 2.33.002.744-.178 1.371-.542 1.88-.364.51-.741.895-1.134 1.156.506.3.948.697 1.329 1.189.38.493.572 1.209.573 2.148.003.722-.115 1.364-.35 1.924zm14.041-2.383a6.722 6.722 0 0 1-.421 1.789 4.497 4.497 0 0 1-1.026 1.56 5.897 5.897 0 0 1-1.872 1.293c-.682.292-1.487.44-2.412.442a6.826 6.826 0 0 1-1.687-.19 5.292 5.292 0 0 1-1.389-.569 6.016 6.016 0 0 1-1.206-.955c-.674-.671-1.104-1.435-1.287-2.29-.185-.854-.278-1.941-.283-3.259v-.516l-.001-.516c-.003-1.317.085-2.407.265-3.267.18-.859.605-1.627 1.276-2.301.58-.584 1.208-1.017 1.883-1.299.676-.282 1.472-.424 2.39-.427.924-.002 1.728.137 2.408.419a5.84 5.84 0 0 1 1.885 1.284 4.51 4.51 0 0 1 1.034 1.56c.226.578.369 1.175.431 1.792.061.617.092 1.353.094 2.208l.002.516v.515a24.17 24.17 0 0 1-.084 2.211zm9.568 4.92l-3.764.009-.017-6.248-4.662-9.077 4.116-.01 2.436 5.505 2.372-5.517 4.109-.01-4.605 9.099.015 6.249zm14.76-.039l-.722-2.28-4.724.013-.741 2.283-3.944.011L69.354 7.15l2.913-.006 5.614 15.322-3.932.009zm15.89-2.728a5.081 5.081 0 0 1-1.287 1.586 5.29 5.29 0 0 1-1.737.931 6.81 6.81 0 0 1-2.059.31c-1.702.004-3.123-.567-4.261-1.714-.676-.671-1.104-1.434-1.287-2.289-.186-.855-.279-1.942-.283-3.261l-.002-.514v-.516c-.004-1.319.084-2.407.265-3.267.18-.859.606-1.626 1.276-2.302.574-.576 1.201-1.008 1.888-1.292.687-.286 1.476-.431 2.364-.433.764-.002 1.465.1 2.103.305.638.206 1.21.512 1.716.921a5.23 5.23 0 0 1 1.281 1.564c.348.634.59 1.364.725 2.191l-3.828.01c-.137-.498-.352-.894-.651-1.192-.298-.297-.739-.445-1.319-.444-.324 0-.612.062-.867.181-.256.12-.461.275-.615.464-.133.169-.24.371-.319.606-.08.235-.142.593-.187 1.073-.045.481-.066 1.188-.063 2.12.002 1.241.05 2.112.143 2.613.093.501.24.892.445 1.172.338.434.832.649 1.484.649.568-.002 1.004-.152 1.309-.452.305-.299.522-.697.654-1.195l3.829-.01c-.133.815-.37 1.543-.717 2.185zm11.289 2.659l-.721-2.282-4.725.012-.739 2.285-3.943.011L96.535 7.08l2.914-.006 5.613 15.323-3.934.009zm19.765-2.144c-.528.731-1.241 1.285-2.142 1.663-.9.377-1.895.567-2.981.57-1.268.004-2.374-.145-3.314-.443-.939-.299-1.774-.82-2.507-1.561l2.412-2.425c.381.378.879.652 1.497.821a7.095 7.095 0 0 0 1.925.253c1.465-.003 2.197-.465 2.195-1.383 0-.393-.104-.695-.307-.904-.205-.209-.541-.345-1.013-.408l-1.851-.258c-1.36-.187-2.391-.636-3.086-1.349-.702-.72-1.057-1.747-1.06-3.08-.003-.931.222-1.766.671-2.5.451-.734 1.1-1.309 1.942-1.725.845-.416 1.835-.626 2.97-.628 1.129-.002 2.117.14 2.963.429a5.7 5.7 0 0 1 2.219 1.388l-2.361 2.373c-.395-.392-.819-.641-1.275-.744-.457-.104-1.004-.155-1.641-.153-.603.001-1.063.146-1.377.434-.316.289-.473.619-.471.991a.975.975 0 0 0 .307.714c.238.238.59.389 1.053.45l1.852.248c1.348.193 2.355.614 3.022 1.265.4.384.69.852.872 1.402.18.551.271 1.205.273 1.962.003 1.001-.26 1.868-.787 2.598zm3.282 2.085l-.039-15.337 10.424-.025.008 3.354-6.658.018.008 2.566 5.689-.015.01 3.356-5.691.015.008 2.703 6.657-.017.009 3.355-10.425.027zm-12.04 11.054l-1.379 4.092h2.672z"/><path d="M22.721 44.522h98.037V26.036H22.721v18.486zm87.857-16.939h2.914l5.574 15.337h-3.934l-.717-2.283h-4.723l-.746 2.283h-3.943l5.575-15.337zm-18.67 0h3.764v5.901h4.008v-5.901h3.767V42.92H99.68v-6.081h-4.008v6.081h-3.764V27.583zM78.296 35.25v-.514c0-1.318.09-2.408.272-3.268s.61-1.623 1.281-2.298c.575-.575 1.206-1.005 1.893-1.288s1.476-.426 2.364-.426c.764 0 1.465.104 2.102.31a5.28 5.28 0 0 1 1.713.926c.505.411.93.933 1.277 1.567s.587 1.366.719 2.193h-3.828c-.133-.498-.348-.896-.646-1.194-.299-.298-.738-.446-1.32-.446-.322 0-.612.06-.867.178a1.734 1.734 0 0 0-.617.464c-.133.169-.238.37-.32.604-.08.234-.143.593-.188 1.072-.046.481-.069 1.188-.069 2.119 0 1.243.047 2.114.137 2.615.092.501.239.893.441 1.174.338.435.832.651 1.484.651.568 0 1.004-.15 1.31-.448.305-.297.524-.695.657-1.193h3.828c-.132.814-.371 1.541-.719 2.184s-.777 1.168-1.292 1.582a5.298 5.298 0 0 1-1.741.926 6.81 6.81 0 0 1-2.059.305c-1.703 0-3.121-.574-4.257-1.725-.671-.674-1.099-1.438-1.281-2.293s-.272-1.943-.272-3.261v-.516zm-13.991-7.667h3.766v9.866c0 .701.181 1.25.542 1.646s.859.595 1.493.595c.407 0 .768-.088 1.085-.263.316-.176.559-.432.728-.768.169-.338.253-.739.253-1.211v-9.866h3.766v9.951c0 .806-.15 1.554-.452 2.24s-.723 1.276-1.263 1.767a5.512 5.512 0 0 1-1.872 1.12 6.544 6.544 0 0 1-2.251.384 6.304 6.304 0 0 1-2.909-.684 5.215 5.215 0 0 1-2.114-1.939c-.516-.838-.773-1.801-.773-2.888v-9.95zM50.957 35.25v-.514c0-1.318.091-2.408.273-3.268.182-.859.61-1.623 1.282-2.298a5.79 5.79 0 0 1 1.892-1.288c.688-.283 1.475-.426 2.364-.426.764 0 1.465.104 2.102.31a5.29 5.29 0 0 1 1.713.926c.505.411.93.933 1.278 1.567.346.635.586 1.366.72 2.193h-3.829c-.135-.498-.35-.896-.647-1.194-.298-.298-.738-.446-1.32-.446-.323 0-.612.06-.869.178-.255.121-.46.274-.616.464-.132.169-.239.37-.32.604-.081.234-.143.593-.189 1.072-.046.481-.068 1.188-.068 2.119 0 1.243.045 2.114.137 2.615.091.501.238.893.44 1.174.337.435.832.651 1.484.651.567 0 1.004-.15 1.31-.448.304-.297.523-.695.658-1.193h3.829a6.932 6.932 0 0 1-.72 2.184 5.137 5.137 0 0 1-1.293 1.582 5.274 5.274 0 0 1-1.738.926 6.827 6.827 0 0 1-2.061.305c-1.702 0-3.121-.574-4.256-1.725-.672-.674-1.1-1.438-1.282-2.293-.182-.855-.273-1.943-.273-3.261v-.516zm-5.996 2.158c-.204-.21-.541-.348-1.009-.409l-1.852-.264c-1.36-.189-2.388-.643-3.082-1.357-.702-.723-1.052-1.75-1.052-3.082 0-.932.227-1.765.678-2.498.453-.732 1.102-1.306 1.947-1.721.845-.412 1.835-.619 2.971-.619 1.129 0 2.117.146 2.961.436a5.682 5.682 0 0 1 2.215 1.396l-2.367 2.366c-.394-.395-.818-.643-1.273-.748-.457-.104-1.003-.156-1.641-.156-.603 0-1.063.143-1.378.43-.315.288-.473.617-.473.989 0 .272.101.513.304.714.239.24.59.391 1.052.453l1.852.253c1.347.196 2.352.621 3.019 1.272.399.387.688.854.868 1.404.179.551.268 1.205.268 1.963 0 1.003-.265 1.867-.795 2.599-.529.729-1.244 1.28-2.146 1.655-.901.375-1.895.563-2.981.563-1.27 0-2.375-.149-3.314-.452a6.072 6.072 0 0 1-2.503-1.566l2.419-2.419c.378.379.875.652 1.493.824.618.174 1.26.259 1.926.259 1.466 0 2.199-.459 2.199-1.378 0-.394-.103-.696-.306-.907zm-19.376-9.825H36.01v3.355h-6.659v2.565h5.69v3.356h-5.69v2.704h6.659v3.355H25.585V27.583zm75.817-25.9l-3.611.009-1.038 3.838h2.145z"/></g></svg>