<svg xmlns="http://www.w3.org/2000/svg" width="331.096" height="103" viewBox="-5.167 1.667 331.096 103"><g fill="#FFF"><path d="M26.903 26.243H22.26l-.653 4.515h4.617l.679-4.515z"/><path d="M1.903 51.25H46.58V6.576H1.903V51.25zm6.483-20.492h4.267l.675-4.514h-2.985v-7.957h4.264l1.23-7.876h8.955l-1.229 7.876h4.617l1.229-7.876h8.931l-1.229 7.875h2.984v7.957h-4.262l-.68 4.515h2.985v8.002h-4.265l-1.378 8.655h-8.932l1.38-8.655h-4.64l-1.379 8.655h-8.93l1.376-8.655H8.388v-8.002h-.002zm153.949 3.316l6.372-.017-3.109-9.749-3.263 9.766zm-57.689-14.178c-.34-.468-.829-.851-1.472-1.151-.643-.301-1.36-.449-2.143-.443-.773 0-1.466.148-2.083.441-.619.296-1.118.684-1.504 1.175a4.833 4.833 0 0 0-.736 1.415c-.191.561-.332 1.424-.433 2.586-.094 1.167-.138 2.821-.134 4.979.004 2.143.059 3.796.163 4.958.103 1.159.25 2.016.441 2.565.194.554.443 1.024.749 1.407.855 1.104 2.052 1.651 3.588 1.651 1.558-.006 2.759-.565 3.609-1.668.468-.652.807-1.528 1.009-2.625.206-1.095.307-3.203.298-6.309-.008-3.112-.117-5.236-.332-6.373-.211-1.138-.548-2.011-1.02-2.608zm-32.845 3.926c.529-.584.79-1.285.788-2.1 0-.819-.259-1.516-.774-2.098-.508-.58-1.333-.87-2.468-.868l-5.597.016.017 5.948 5.592-.019c1.103 0 1.919-.293 2.442-.879zm-1.947 8.957l-6.069.015.019 6.4 6.07-.016c1.138-.003 1.969-.321 2.496-.955.522-.636.782-1.395.782-2.274-.002-.887-.264-1.633-.782-2.253-.522-.616-1.359-.917-2.516-.917zm157.312 1.126l6.371-.013-3.11-9.751-3.261 9.764z"/><path d="M232.313 6.576l-.062.101-5.083.011.029-.11H50.815v44.673h275.114V6.576h-93.616zM81.295 41.033c-.563 1.34-1.355 2.471-2.377 3.393-1.015.922-2.233 1.625-3.649 2.104-1.455.485-2.978.73-4.511.728l-15.915.037-.095-36.577 15.165-.043c2.476-.004 4.587.428 6.343 1.305 1.756.874 3.089 2.109 3.985 3.702.898 1.6 1.349 3.454 1.353 5.559.004 1.775-.423 3.272-1.292 4.486-.868 1.214-1.77 2.133-2.707 2.756a11.116 11.116 0 0 1 3.17 2.839c.908 1.173 1.363 2.882 1.368 5.124.005 1.72-.276 3.25-.838 4.587zm33.488-5.682a16.056 16.056 0 0 1-1.002 4.267c-.53 1.374-1.346 2.613-2.449 3.721-1.346 1.356-2.836 2.386-4.461 3.083-1.629.699-3.548 1.049-5.754 1.054-1.486.004-2.827-.149-4.025-.453a12.683 12.683 0 0 1-3.312-1.359 14.08 14.08 0 0 1-2.875-2.276c-1.609-1.601-2.631-3.421-3.07-5.461-.441-2.037-.667-4.631-.675-7.775v-1.229l-.004-1.231c-.011-3.141.201-5.737.631-7.79.429-2.05 1.441-3.881 3.043-5.49 1.384-1.395 2.881-2.423 4.491-3.098 1.612-.671 3.515-1.012 5.702-1.017 2.205-.004 4.118.328 5.742 1 1.624.671 3.121 1.694 4.497 3.062a10.82 10.82 0 0 1 2.466 3.717 16.175 16.175 0 0 1 1.026 4.278c.144 1.473.217 3.228.225 5.269l.004 1.229.003 1.229c.001 2.04-.065 3.797-.203 5.27zm22.822 11.732l-8.978.02-.041-14.898-11.119-21.649 9.82-.024 5.808 13.131 5.654-13.158 9.803-.027-10.984 21.704.037 14.901zm35.202-.092l-1.72-5.438-11.267.03-1.77 5.444-9.406.029 13.203-36.618 6.948-.015 13.392 36.544-9.38.024zm37.901-6.507c-.82 1.533-1.845 2.795-3.068 3.785a12.58 12.58 0 0 1-4.145 2.22c-1.535.489-3.174.733-4.909.737-4.062.013-7.449-1.352-10.164-4.087-1.61-1.604-2.633-3.417-3.067-5.46-.443-2.042-.667-4.632-.678-7.778l-.004-1.225v-1.231c-.011-3.146.2-5.743.634-7.792.426-2.049 1.445-3.881 3.042-5.489 1.37-1.375 2.867-2.405 4.506-3.083 1.636-.682 3.517-1.029 5.637-1.034 1.82-.004 3.494.241 5.016.726a12.665 12.665 0 0 1 4.092 2.201c1.206.973 2.221 2.221 3.056 3.73.827 1.512 1.407 3.252 1.729 5.226l-9.13.025c-.328-1.188-.84-2.135-1.553-2.848-.712-.708-1.764-1.058-3.146-1.056-.774 0-1.461.145-2.07.434-.608.284-1.098.653-1.466 1.105a4.805 4.805 0 0 0-.763 1.446c-.191.558-.339 1.415-.445 2.558-.107 1.151-.157 2.833-.148 5.059.004 2.959.117 5.036.34 6.234.221 1.194.571 2.126 1.061 2.792.806 1.035 1.985 1.548 3.541 1.548 1.356-.004 2.395-.366 3.122-1.078.726-.713 1.245-1.662 1.562-2.85l9.131-.022c-.319 1.942-.885 3.677-1.713 5.207zm26.924 6.344l-1.718-5.443-11.268.029-1.764 5.449-9.407.026 13.202-36.615 6.949-.016 13.389 36.545-9.383.025zm47.14-5.115c-1.259 1.745-2.959 3.064-5.106 3.964-2.146.9-4.519 1.355-7.108 1.359-3.024.01-5.665-.342-7.907-1.056-2.241-.714-4.232-1.958-5.979-3.72l5.753-5.786c.909.901 2.097 1.555 3.57 1.958 1.474.406 3.004.605 4.592.601 3.494-.006 5.24-1.107 5.236-3.298 0-.936-.246-1.657-.73-2.157-.49-.499-1.29-.822-2.415-.973l-4.415-.615c-3.244-.445-5.699-1.516-7.36-3.219-1.673-1.716-2.521-4.164-2.527-7.344-.007-2.221.529-4.213 1.604-5.961 1.073-1.749 2.62-3.121 4.63-4.113 2.015-.991 4.376-1.493 7.084-1.498 2.693-.008 5.049.332 7.064 1.023a13.63 13.63 0 0 1 5.294 3.309l-5.633 5.658c-.941-.932-1.955-1.526-3.042-1.771-1.087-.25-2.395-.369-3.912-.365-1.438.002-2.535.349-3.285 1.033-.751.691-1.127 1.477-1.123 2.362a2.327 2.327 0 0 0 .731 1.706c.569.569 1.407.928 2.51 1.072l4.419.592c3.213.461 5.615 1.465 7.207 3.018.955.914 1.646 2.031 2.08 3.343.429 1.316.645 2.873.651 4.68.003 2.389-.624 4.456-1.883 6.198zm7.829 4.973l-.093-36.578 24.862-.062.02 8.002-15.881.042.02 6.119 13.569-.033.022 8.004-13.573.037.019 6.446 15.878-.043.021 8.004-24.864.062zm-28.717 26.363l-3.287 9.759h6.374l-3.087-9.759z"/><path d="M50.626 99.576h233.825V55.484H50.626v44.092zM260.17 59.175h6.95l13.294 36.581h-9.382l-1.708-5.446H258.06l-1.779 5.446h-9.405l13.294-36.581zm-44.529 0h8.976V73.25h9.559V59.175h8.984v36.581h-8.984V81.251h-9.559v14.505h-8.976V59.175zM183.177 77.46v-1.225c0-3.146.215-5.744.649-7.792.436-2.05 1.456-3.871 3.057-5.481 1.372-1.372 2.877-2.396 4.514-3.073 1.639-.675 3.52-1.015 5.638-1.015 1.822 0 3.496.247 5.014.738 1.521.497 2.883 1.229 4.085 2.209s2.215 2.225 3.046 3.736c.829 1.518 1.399 3.261 1.717 5.232h-9.132c-.316-1.188-.829-2.137-1.542-2.848-.713-.712-1.763-1.066-3.149-1.066-.769 0-1.461.143-2.067.425-.611.289-1.101.653-1.472 1.105a4.991 4.991 0 0 0-.765 1.443c-.191.56-.34 1.415-.451 2.558-.107 1.146-.165 2.832-.165 5.053 0 2.966.113 5.043.328 6.239.217 1.193.569 2.128 1.052 2.798.806 1.037 1.984 1.554 3.54 1.554 1.356 0 2.396-.357 3.124-1.068.728-.709 1.251-1.658 1.567-2.847h9.132c-.317 1.943-.888 3.675-1.717 5.208-.831 1.532-1.854 2.786-3.081 3.774a12.678 12.678 0 0 1-4.151 2.206c-1.537.487-3.174.729-4.912.729-4.063 0-7.443-1.37-10.151-4.113-1.601-1.608-2.62-3.43-3.057-5.471-.437-2.04-.649-4.635-.649-7.776V77.46h-.002zm-33.37-18.285h8.985v23.53c0 1.674.428 2.981 1.293 3.929.864.947 2.049 1.417 3.562 1.417.97 0 1.83-.208 2.591-.625a4.236 4.236 0 0 0 1.735-1.828c.402-.81.604-1.767.604-2.892V59.177h8.979v23.734c0 1.922-.359 3.706-1.079 5.344a12.244 12.244 0 0 1-3.011 4.213 13.135 13.135 0 0 1-4.463 2.671c-1.693.615-3.48.916-5.371.916-2.489 0-4.803-.54-6.936-1.632-2.134-1.085-3.809-2.629-5.042-4.624-1.229-2.001-1.846-4.296-1.846-6.888l-.001-23.736zM117.971 77.46v-1.225c0-3.146.218-5.744.65-7.792.433-2.05 1.453-3.871 3.058-5.481 1.374-1.372 2.875-2.396 4.512-3.073 1.64-.675 3.516-1.015 5.639-1.015 1.824 0 3.496.247 5.014.738a12.606 12.606 0 0 1 4.086 2.209c1.202.979 2.219 2.225 3.048 3.736.823 1.518 1.396 3.261 1.716 5.232h-9.133c-.321-1.188-.832-2.137-1.542-2.848-.714-.712-1.76-1.066-3.149-1.066-.768 0-1.461.143-2.07.425-.61.289-1.096.653-1.471 1.105a4.966 4.966 0 0 0-.764 1.443c-.191.56-.341 1.415-.453 2.558-.107 1.146-.162 2.832-.162 5.053 0 2.966.109 5.043.329 6.239.217 1.193.568 2.128 1.05 2.798.805 1.037 1.985 1.554 3.541 1.554 1.353 0 2.395-.357 3.123-1.068.726-.709 1.247-1.658 1.567-2.847h9.133c-.319 1.943-.893 3.675-1.716 5.208-.829 1.532-1.859 2.786-3.084 3.774a12.66 12.66 0 0 1-4.147 2.206c-1.541.487-3.178.729-4.916.729-4.061 0-7.442-1.37-10.151-4.113-1.605-1.608-2.624-3.43-3.058-5.471-.434-2.04-.65-4.635-.65-7.776V77.46zm-14.301 5.146c-.487-.501-1.289-.829-2.407-.976l-4.42-.629c-3.242-.452-5.696-1.532-7.348-3.237-1.675-1.723-2.509-4.173-2.509-7.351 0-2.223.541-4.21 1.616-5.958 1.08-1.747 2.627-3.114 4.645-4.105 2.01-.982 4.375-1.476 7.084-1.476 2.692 0 5.05.349 7.062 1.038a13.57 13.57 0 0 1 5.282 3.326l-5.645 5.646c-.938-.941-1.95-1.532-3.036-1.783-1.087-.249-2.392-.374-3.915-.374-1.437 0-2.534.339-3.285 1.025-.755.687-1.129 1.473-1.129 2.358 0 .649.242 1.223.726 1.703.569.573 1.409.932 2.511 1.08l4.417.603c3.213.468 5.61 1.483 7.201 3.036a8.062 8.062 0 0 1 2.067 3.349c.43 1.314.639 2.873.639 4.682 0 2.393-.631 4.453-1.897 6.198-1.258 1.736-2.967 3.054-5.115 3.947-2.148.895-4.518 1.343-7.112 1.343-3.028 0-5.661-.357-7.902-1.079-2.243-.72-4.232-1.963-5.969-3.737l5.771-5.769c.902.903 2.09 1.556 3.561 1.968 1.471.411 3.004.615 4.592.615 3.497 0 5.246-1.094 5.246-3.286-.002-.931-.248-1.653-.731-2.157zM57.458 59.175H82.32v8.002H66.44v6.119h13.571v8.007H66.44v6.448h15.879v8.005H57.458V59.175zM238.286-2.599l-8.614.021-2.472 9.154h5.113l5.973-9.175z"/></g></svg>