<svg xmlns="http://www.w3.org/2000/svg" width="91" height="95.333" viewBox="0 0 91 95.333"><path fill="#FFF" d="M48.749 54.805v-4.1l11.057-11.058-4.297-4.297-6.76 6.759v-5.991l11.057-11.057-4.297-4.298-6.76 6.761v-5.991l11.057-11.059-4.297-4.297-6.76 6.76V5.681h-5.782v7.317l-6.82-6.82-4.297 4.297 11.117 11.119v5.99l-6.82-6.82-4.297 4.298L42.967 36.18v5.99l-6.82-6.819-4.297 4.297 11.117 11.118v4.039H3.065v5.781l12.373 30.016h59.347V90.6l.074.002 13.662-30.016v-5.781H48.749zm22.558 30.014H19.072L8.657 60.586h73.41l-10.76 24.233z"/></svg>