<svg xmlns="http://www.w3.org/2000/svg" width="91" height="95.333" viewBox="0 0 91 95.333"><g fill="#FFF"><path d="M38.892 49.222h12.831v41.049H38.892z"/><path d="M48.176 44.296v-2.567H42.26v2.567h-8.859v25.451h2.775v-22.02h18.847v22.02h2.774V44.296h-2.774zM27.512 67.327h4.289v2.42h-4.289zm31.636-11.55h4.646v2.653h-4.646zM3.105 5.442h12.49v5.773H3.105zm72.416 0h12.494v5.773H75.521zM67.25 9.734h6.752V6.925h-9.789v9.988H27.75V6.925H16.778v2.809h7.597v10.457h19.412v15.381H33.401v4.13h24.396v-4.13H46.825V20.191H67.25zM15.09 65.959h9.285v5.895H15.09zm51.317-12.371h9.284v6.293h-9.284z"/></g></svg>