<svg xmlns="http://www.w3.org/2000/svg" width="43.75" height="44.5" viewBox="0 0 43.75 44.5"><path fill="#FFF" d="M21.877 1.642c-11.383 0-20.61 9.227-20.61 20.609 0 11.381 9.228 20.606 20.61 20.606 11.379 0 20.605-9.226 20.605-20.606.001-11.382-9.226-20.609-20.605-20.609zm9.708 16.874c.009.212.01.427.01.638 0 .98-.113 1.982-.339 2.976-1.27 5.626-6.08 11.052-13.91 11.052-2.823 0-5.458-.815-7.678-2.214.393.042.792.066 1.197.066 2.348 0 4.504-.786 6.219-2.112-2.19-.037-4.04-1.464-4.679-3.421.308.059.619.088.943.088.457 0 .897-.061 1.32-.171-1.687-.336-2.011-1.505-2.625-3.051-.219-.553.705-1.155.705-1.786v-.06c0 .367.4.589 1.221.615-1.342-.885-2.757-2.396-2.757-4.104 0-.904-.009-1.751.42-2.48 2.471 2.985 6.028 4.947 10.189 5.152-.082-.363-.196-.736-.196-1.123 0-2.72 2.211-4.93 4.98-4.93 1.438 0 2.722.6 3.637 1.557a10.086 10.086 0 0 0 3.172-1.197 5.006 5.006 0 0 1-2.205 2.729 10.19 10.19 0 0 0 2.87-.776 10.033 10.033 0 0 1-2.494 2.552z"/></svg>