<svg xmlns="http://www.w3.org/2000/svg" width="43.75" height="44.5" viewBox="0 0 43.75 44.5"><path fill="#FFF" d="M21.876 1.384c-11.381 0-20.609 9.227-20.609 20.607 0 11.383 9.229 20.608 20.609 20.608 11.383 0 20.606-9.226 20.606-20.608.001-11.381-9.223-20.607-20.606-20.607zm12.733 17.528v6.159c-.032.103-.088.203-.096.311-.082 1.056-.144 2.111-.49 3.127-.441 1.293-1.32 2.096-2.664 2.271-1.131.15-2.278.195-3.422.239-3.287.124-6.575.171-9.865.063a239.314 239.314 0 0 1-5.617-.265 3.832 3.832 0 0 1-1.727-.511c-.866-.5-1.261-1.315-1.513-2.231-.246-.893-.285-1.807-.36-2.719-.008-.098-.062-.191-.094-.285v-6.159c.032-.096.086-.19.094-.286.075-.914.106-1.832.36-2.722.185-.659.425-1.289.927-1.791.688-.688 1.543-.964 2.488-1.007 1.755-.081 3.511-.169 5.27-.211 4.299-.107 8.598-.063 12.891.211 1.824.117 2.926 1.059 3.374 2.822.225.888.275 1.793.351 2.697.007.097.061.191.093.287zm-8.608 2.812l-6.975-3.663v7.301a9401.47 9401.47 0 0 1 6.975-3.638z"/></svg>